<?xml version="1.0" standalone="no"?>
<!DOCTYPE svg PUBLIC "-//W3C//DTD SVG 20010904//EN"
 "http://www.w3.org/TR/2001/REC-SVG-20010904/DTD/svg10.dtd">
<svg version="1.0" xmlns="http://www.w3.org/2000/svg"
 width="487.000000pt" height="534.000000pt" viewBox="0 0 487.000000 534.000000"
 preserveAspectRatio="xMidYMid meet">
<metadata>
Created by potrace 1.16, written by Peter Selinger 2001-2019
</metadata>
<g transform="translate(0.000000,534.000000) scale(0.100000,-0.100000)"
fill="#000000" stroke="none">
<path d="M0 4341 l0 -999 63 -11 c34 -7 77 -14 96 -17 41 -6 51 -11 51 -29 0
-15 -17 -13 -133 11 -38 8 -70 14 -73 14 -2 0 -4 -673 -4 -1495 l0 -1494 21
-36 c12 -20 16 -35 10 -35 -7 0 -16 10 -21 22 -7 19 -9 14 -9 -25 -1 -30 7
-63 20 -88 11 -23 18 -43 15 -46 -3 -4 -12 9 -20 28 -15 33 -15 32 -16 -53 l0
-88 410 0 c348 0 410 2 417 15 7 12 14 12 51 0 36 -13 132 -15 580 -15 295 1
546 3 558 6 15 4 21 13 20 30 0 13 -3 24 -4 24 -2 0 -40 -9 -84 -21 -114 -29
-107 -18 10 14 110 31 115 32 109 15 -2 -7 0 -21 5 -32 7 -13 6 -21 -3 -27
-11 -7 623 -6 1191 2 36 0 148 -3 250 -6 l186 -7 12 26 c7 15 12 35 12 44 0
15 2 15 10 2 5 -8 10 -27 10 -42 l0 -28 565 0 565 0 0 301 0 302 -157 -5 c-87
-3 -137 -3 -110 -1 26 2 46 7 43 11 -2 4 46 7 107 7 l112 0 3 1250 2 1251
-110 59 c-155 84 -152 81 -110 92 31 8 43 4 125 -44 l90 -54 3 112 c1 61 1
114 -1 116 -3 2 -76 -17 -163 -42 -88 -26 -200 -58 -251 -73 -50 -14 -90 -30
-87 -34 3 -4 -2 -5 -10 -2 -9 3 -37 -1 -63 -10 -27 -8 -73 -23 -103 -32 -30
-9 -61 -21 -67 -27 -16 -12 -17 5 -4 31 6 9 17 51 26 92 8 41 27 106 42 144
l26 70 -19 34 c-13 24 -38 44 -81 66 -57 28 -63 34 -63 64 0 28 2 31 18 23 9
-5 61 -31 115 -57 112 -54 104 -36 87 -215 -15 -151 -20 -179 -35 -179 -7 0
-28 -7 -46 -15 l-34 -16 30 6 c17 3 95 26 175 50 80 25 177 54 215 66 39 11
77 23 85 26 8 3 21 7 28 9 7 1 51 13 98 26 l84 23 0 958 0 957 -918 0 -918 0
-51 -25 c-28 -13 -64 -27 -80 -31 -15 -3 -47 -13 -71 -21 -36 -14 -47 -14 -68
-3 -21 12 -29 11 -59 -3 -20 -9 -44 -17 -54 -17 -27 0 -143 -60 -164 -84 -44
-52 -97 -192 -97 -257 0 -50 -8 -69 -31 -69 -19 0 -19 1 -3 26 12 18 17 48 18
103 1 73 4 86 49 173 l48 95 -33 56 -32 57 -93 0 -94 0 17 -32 c9 -18 28 -50
41 -70 13 -21 20 -38 16 -38 -5 0 -63 18 -131 41 -106 35 -124 45 -137 70
l-16 29 -1004 0 -1005 0 0 -999z m2934 899 c74 -65 123 -176 128 -291 2 -45 6
-55 19 -52 8 3 21 -2 27 -10 9 -11 7 -13 -16 -9 -22 3 -31 -2 -39 -20 l-11
-23 -9 25 c-12 29 -5 69 8 48 17 -25 9 39 -12 107 -22 73 -95 172 -158 214
-26 18 -31 25 -20 32 25 16 48 10 83 -21z m-1689 -4 c34 -15 35 -16 35 -73 0
-33 -4 -63 -10 -69 -6 -6 -5 -24 2 -51 5 -24 8 -49 5 -58 -10 -25 -37 -5 -38
29 -1 17 -5 42 -10 56 -7 19 -8 14 -4 -21 5 -50 1 -61 -21 -52 -11 4 -14 32
-14 129 0 79 4 124 10 124 6 0 26 -7 45 -14z m1510 -21 c25 -4 27 -4 10 5 -17
9 -15 9 10 4 29 -5 100 -52 92 -60 -2 -2 -24 0 -48 4 -53 10 -69 6 -69 -17 0
-10 -6 -18 -12 -18 -7 -1 -28 -4 -45 -8 -32 -7 -39 -1 -34 28 0 4 -13 7 -31 7
-34 0 -118 -36 -118 -51 0 -5 -7 -9 -16 -9 -12 0 -7 10 17 38 74 84 120 99
244 77z m-1254 -103 l2 -37 6 35 c4 22 12 35 21 35 12 0 15 -22 18 -127 2
-105 0 -128 -11 -128 -20 0 -34 20 -40 55 l-4 30 -2 -33 c-1 -26 -5 -33 -18
-30 -16 3 -18 18 -21 118 -3 133 -1 145 28 130 14 -8 20 -22 21 -48z m1457
-29 c17 -24 31 -57 38 -85 1 -5 2 -9 4 -10 1 -2 3 -24 5 -49 1 -26 9 -60 16
-75 14 -29 16 -86 5 -134 -6 -22 -5 -23 4 -5 8 16 9 14 5 -15 -6 -39 -25 -63
-32 -42 -4 10 -9 8 -19 -5 -12 -17 -13 -16 -14 7 -1 24 -1 24 -15 6 -9 -12
-21 -17 -35 -13 -12 3 -35 1 -51 -5 -23 -8 -35 -7 -53 6 -15 9 -26 11 -28 5
-2 -7 -11 -7 -28 0 -17 7 -20 10 -8 10 10 1 15 7 12 14 -2 7 9 20 25 30 16 10
33 26 36 37 7 22 39 27 51 9 5 -8 10 -6 16 5 14 24 -6 51 -57 76 -25 12 -45
26 -45 31 0 5 -10 10 -22 10 l-23 2 23 4 c27 5 36 24 28 57 -6 25 -52 42 -60
22 -3 -8 -7 -8 -13 0 -11 14 -63 12 -90 -4 -33 -19 -29 -81 6 -83 10 0 11 -2
4 -6 -7 -2 -13 -12 -13 -20 0 -11 6 -13 23 -8 52 17 111 17 143 0 18 -10 35
-23 38 -31 3 -7 -12 -1 -32 13 -32 21 -44 24 -87 18 -27 -3 -60 -13 -72 -21
-29 -18 -39 -18 -23 1 8 10 9 15 2 15 -6 0 -15 -6 -19 -14 -4 -7 -18 -18 -30
-25 -13 -6 -23 -18 -23 -26 0 -7 -6 -15 -12 -17 -9 -3 -8 -10 5 -22 15 -16 18
-16 23 -2 8 21 23 20 46 -1 16 -15 17 -18 3 -33 -15 -16 -14 -17 11 -17 15 0
21 3 14 7 -8 5 -6 9 6 14 11 4 23 2 29 -7 5 -7 16 -13 23 -11 7 1 8 0 2 -3 -5
-2 -10 -12 -11 -21 0 -14 -2 -14 -8 2 -6 16 -9 16 -22 5 -16 -16 -64 -39 -81
-39 -6 0 -8 9 -5 19 3 12 -1 22 -9 25 -8 3 -14 12 -14 20 0 13 -5 14 -26 5
-15 -5 -29 -7 -32 -4 -3 3 -1 5 5 5 6 0 13 7 17 15 4 12 2 13 -14 3 -24 -16
-30 -9 -37 40 -4 32 -1 44 16 61 21 21 21 41 0 41 -6 0 -7 -9 -3 -22 6 -19 5
-21 -8 -11 -8 7 -18 10 -21 6 -4 -3 -7 0 -7 8 0 12 -2 12 -9 0 -9 -13 -9 13
-2 110 0 9 8 20 17 23 8 3 13 2 10 -3 -3 -5 4 -9 17 -10 12 0 38 -3 58 -7 26
-4 46 0 74 15 39 20 84 82 85 114 0 14 7 18 28 15 22 -2 28 -8 30 -35 5 -46
75 -88 130 -79 20 4 46 8 58 9 20 2 20 3 5 24 -9 12 -23 20 -31 18 -20 -6 -47
16 -47 38 0 18 22 23 32 7 4 -6 3 -10 -2 -9 -20 3 -25 -2 -13 -16 7 -8 15 -15
19 -15 9 0 8 42 -1 56 -4 6 -5 14 -1 17 9 10 40 -11 61 -40z m-1294 -5 c8 -50
26 -199 26 -215 0 -7 -9 -13 -20 -13 -15 0 -20 7 -20 25 0 14 -4 25 -10 25 -5
0 -10 -6 -10 -14 0 -19 -13 -27 -29 -17 -10 6 -9 29 3 113 9 58 16 111 16 117
0 6 9 11 20 11 14 0 20 -9 24 -32z m250 -58 c26 -9 26 -10 26 -125 0 -127 -5
-138 -57 -113 l-28 13 -3 118 c-2 111 -2 117 17 117 11 0 31 -4 45 -10z m134
-46 c28 -20 32 -87 5 -82 -9 2 -20 14 -24 28 -4 14 -7 -12 -7 -60 1 -47 3 -75
5 -62 3 14 12 22 24 22 16 0 19 -7 19 -46 l0 -46 -32 6 c-55 11 -58 18 -58
142 0 112 0 114 23 114 12 0 33 -7 45 -16z m139 -139 c17 -139 16 -147 -4
-143 -9 2 -20 14 -24 28 -4 15 -7 18 -8 8 -1 -22 -20 -33 -33 -20 -8 8 -7 44
2 122 13 103 15 111 34 108 18 -3 22 -14 33 -103z m101 64 c23 -8 34 -20 40
-42 5 -18 5 -37 0 -43 -11 -15 -14 -81 -4 -126 7 -35 6 -38 -13 -38 -13 0 -21
6 -21 16 0 13 -3 14 -15 4 -8 -6 -19 -9 -25 -5 -12 8 -14 245 -1 245 4 0 22
-5 39 -11z m1595 -34 c18 -7 46 -26 62 -41 16 -15 39 -28 51 -30 25 -2 92 -43
116 -71 26 -28 48 -88 64 -170 19 -99 18 -142 -3 -166 -10 -11 -12 -17 -5 -13
17 10 15 2 -12 -52 -13 -26 -37 -58 -53 -72 l-28 -25 21 25 c12 14 30 39 40
55 17 27 17 28 1 16 -20 -16 -22 -9 -5 22 26 50 8 127 -44 183 -11 12 -27 37
-36 55 -14 28 -22 33 -45 31 -15 -1 -27 0 -27 4 0 9 41 59 46 57 10 -7 34 -2
34 6 0 6 -8 10 -17 10 -10 -1 -34 2 -53 6 -25 5 -48 2 -75 -10 -22 -10 -47
-19 -55 -21 -148 -32 -190 -40 -190 -34 0 4 -13 10 -30 12 -30 5 -41 -6 -17
-15 6 -3 -6 -6 -28 -6 -26 -1 -35 -4 -27 -10 10 -6 2 -13 -27 -25 -23 -9 -50
-16 -61 -16 -11 0 -20 -6 -20 -12 0 -9 -3 -9 -9 1 -7 11 -10 11 -12 -3 -6 -26
-103 -77 -119 -63 -10 9 -11 9 -6 0 4 -8 1 -13 -7 -13 -8 0 -25 -9 -38 -19
l-24 -19 30 -7 c17 -4 35 -8 42 -10 7 -2 10 2 7 9 -3 8 5 16 20 20 14 3 48 19
75 35 27 16 52 27 55 24 3 -4 6 -1 6 5 0 7 7 12 15 12 9 0 18 6 21 14 5 12 61
31 115 39 8 2 19 6 26 10 6 4 15 2 19 -4 4 -8 9 -7 15 2 7 11 9 10 9 -3 0 -13
9 -17 38 -18 112 -2 152 -12 152 -36 0 -14 -33 -26 -84 -29 -17 -1 -38 -4 -46
-7 -8 -4 -22 -6 -30 -7 -35 0 -56 -7 -66 -20 -6 -8 -22 -15 -36 -17 -32 -3
-147 -75 -148 -91 0 -7 -5 -13 -11 -13 -5 0 -7 5 -3 12 4 6 3 8 -3 5 -6 -4
-16 0 -23 8 -17 21 -29 19 -23 -4 3 -11 18 -25 35 -32 16 -6 25 -15 21 -19 -4
-4 -71 -15 -148 -24 -115 -14 -151 -23 -202 -48 -50 -25 -69 -29 -105 -24 -26
4 -35 3 -24 -2 19 -8 18 -9 -5 -15 -41 -11 -79 -8 -85 8 -10 24 -26 17 -18 -7
6 -19 4 -21 -7 -11 -11 8 -17 8 -27 -3 -7 -8 -9 -14 -5 -14 4 0 69 7 143 15
139 15 186 18 179 11 -2 -2 -56 -9 -119 -15 -63 -7 -138 -16 -166 -22 l-52
-10 9 -37 c5 -20 8 -55 7 -77 0 -29 -3 -21 -10 30 -10 73 -31 112 -47 86 -5
-7 -13 -11 -19 -7 -5 3 -15 -1 -21 -8 -18 -21 -102 -59 -141 -64 -19 -2 -39
-11 -46 -19 -6 -10 -18 -14 -28 -10 -12 5 -16 0 -16 -18 0 -14 -4 -25 -10 -25
-5 0 -10 -7 -10 -15 0 -8 -4 -15 -9 -15 -13 0 9 -83 25 -96 21 -17 17 -44 -6
-44 -11 0 -26 12 -34 28 -8 15 -15 20 -16 13 0 -14 18 -45 73 -124 10 -16 15
-33 10 -38 -12 -12 -26 0 -57 45 l-26 38 -9 -25 c-5 -13 -15 -43 -21 -66 -6
-22 -15 -41 -20 -41 -15 0 -12 70 5 144 8 35 17 80 18 98 2 18 8 32 15 31 9
-2 9 3 0 22 -10 23 -6 34 46 110 61 89 72 97 216 155 90 35 113 49 160 91 25
23 64 50 88 60 24 10 75 40 114 66 74 50 136 89 254 160 38 22 78 50 88 62 10
11 22 18 26 16 4 -3 14 3 21 12 12 14 12 16 0 8 -26 -15 39 63 75 90 19 14 39
23 46 19 6 -4 8 -3 5 3 -8 12 75 50 136 63 49 10 115 4 160 -15z m-1519 -792
c-4 -16 -24 -80 -46 -143 -67 -196 -88 -273 -95 -332 -4 -39 -10 -58 -19 -58
-8 0 -14 -4 -14 -10 0 -5 -11 -12 -25 -16 -14 -3 -25 -10 -25 -16 0 -5 -12
-20 -27 -33 -33 -29 -92 -33 -129 -9 -13 9 -27 14 -31 11 -3 -4 1 -9 10 -13
12 -4 14 -11 7 -30 -7 -17 -6 -24 3 -25 9 0 9 -2 0 -6 -30 -12 -8 -21 60 -25
39 -3 86 -11 102 -18 30 -13 38 -15 62 -18 16 -2 48 -62 33 -62 -7 0 -8 -6 0
-19 7 -13 7 -22 0 -26 -5 -3 -10 -14 -10 -23 0 -9 -6 -29 -14 -43 -8 -16 -10
-32 -5 -40 4 -7 4 -16 -1 -19 -5 -3 -11 -17 -13 -30 -9 -48 -19 -70 -33 -70
-7 0 -16 -5 -20 -12 -4 -7 -3 -8 4 -4 24 15 11 -11 -19 -37 -29 -25 -46 -32
-76 -28 -7 1 -13 -2 -13 -6 0 -15 -44 -13 -67 2 -40 26 -69 16 -40 -14 10 -12
9 -13 -7 -7 -16 5 -17 4 -7 -8 10 -12 7 -15 -21 -19 -30 -3 -29 -4 9 -5 106
-4 233 -53 283 -107 24 -27 24 -28 3 -23 -15 4 -20 2 -16 -7 6 -16 120 -30
159 -21 15 4 109 11 210 16 170 8 186 10 227 34 51 30 65 25 36 -16 -22 -31
-72 -60 -132 -76 -32 -9 -43 -8 -73 10 -19 11 -37 18 -41 15 -11 -11 50 -57
125 -94 78 -38 182 -128 182 -157 0 -9 -6 -19 -14 -22 -20 -8 -56 13 -56 32 0
10 -6 14 -15 10 -15 -5 -95 39 -95 54 0 8 -99 40 -123 40 -10 0 -17 6 -17 14
0 14 -41 46 -60 46 -26 0 89 -125 152 -166 37 -24 79 -60 94 -79 15 -20 35
-35 47 -35 21 0 57 -26 57 -42 0 -12 -89 -5 -98 8 -4 5 -19 15 -34 23 -16 8
-28 20 -28 28 0 7 -7 13 -15 13 -8 0 -15 7 -15 15 0 12 -5 13 -26 5 -33 -13
-57 4 -48 33 4 13 2 17 -5 13 -6 -4 -21 3 -34 16 -13 13 -37 28 -53 34 -16 6
-37 15 -47 19 -16 7 -17 3 -14 -29 3 -33 9 -40 53 -61 104 -50 140 -106 76
-118 -36 -7 -45 0 -38 33 3 20 0 32 -12 42 -15 12 -16 11 -3 -5 21 -27 -2 -48
-27 -24 -15 16 -15 19 -2 27 13 8 13 10 -2 10 -9 0 -20 -5 -24 -11 -4 -7 -14
1 -26 20 -15 23 -27 31 -49 31 -26 0 -28 -2 -20 -19 17 -31 -10 -42 -43 -18
-15 11 -17 17 -7 35 6 12 18 22 26 22 8 0 15 7 15 15 0 8 -9 15 -20 15 -18 0
-17 4 11 44 31 43 32 71 4 60 -7 -3 -22 -1 -33 5 -13 7 -23 7 -32 -2 -11 -9
-11 -8 0 8 8 11 21 26 29 32 22 19 9 24 -22 8 -15 -8 -36 -12 -47 -10 -12 2
-31 0 -43 -5 -17 -7 -18 -9 -4 -9 9 -1 17 -5 17 -9 0 -5 10 -14 23 -20 21 -10
21 -11 -9 -11 -17 -1 -43 8 -57 19 -28 22 -27 45 5 95 16 24 12 22 -16 -9 -20
-22 -36 -45 -36 -53 0 -7 -5 -13 -10 -13 -7 0 -8 -13 -5 -34 8 -38 -2 -79 -15
-71 -5 3 -7 12 -3 20 3 10 -1 15 -15 15 -12 0 -24 5 -27 10 -4 6 -12 7 -22 1
-10 -5 -28 -5 -46 1 -19 7 -36 7 -52 0 -18 -9 -26 -8 -36 4 -8 10 -15 12 -22
5 -7 -7 -16 -6 -29 6 -24 22 -23 33 5 30 13 -1 21 3 20 11 -2 7 7 12 22 12 14
0 28 7 31 15 3 8 14 17 25 20 10 4 19 10 19 13 0 9 -108 7 -131 -2 -10 -5 -19
1 -27 18 -10 22 -8 24 23 30 55 11 56 30 2 22 -28 -4 -48 -3 -52 4 -3 5 -11
10 -16 10 -6 0 -7 -4 -4 -10 3 -5 0 -10 -9 -10 -8 0 -17 -6 -20 -12 -19 -40 6
78 28 133 15 39 26 85 26 113 0 50 40 183 84 276 22 48 26 51 26 26 0 -27 2
-28 32 -22 18 4 41 15 51 25 17 17 17 19 2 35 -9 9 -12 16 -6 16 16 0 13 46
-4 60 -8 7 -15 19 -15 27 0 8 -3 12 -7 10 -5 -3 -8 9 -7 26 0 35 -12 67 -25
67 -10 0 -8 -32 4 -65 6 -19 6 -19 -8 -3 -8 10 -18 14 -22 10 -5 -4 -5 -1 -1
6 4 6 2 12 -4 12 -7 0 -10 6 -7 14 3 7 0 19 -6 25 -6 6 -12 31 -14 55 -8 88
87 231 179 270 18 8 45 19 60 25 17 6 45 37 72 80 36 56 59 78 128 124 45 31
86 56 91 56 4 1 4 -11 1 -26z m1476 -47 c0 -3 9 -81 20 -175 74 -634 91 -793
87 -797 -3 -3 -169 -21 -369 -39 -199 -19 -382 -37 -405 -40 -37 -5 -43 -4
-43 12 0 10 -21 231 -46 491 -26 260 -44 475 -42 477 4 5 200 24 563 54 121
10 223 19 228 20 4 0 7 -1 7 -3z m-1154 -391 c14 -13 13 -16 -8 -24 -93 -37
-99 -41 -92 -64 3 -12 45 -119 91 -237 154 -391 150 -384 196 -365 13 5 17 2
17 -13 0 -11 -8 -23 -18 -27 -18 -5 -18 -8 4 -53 29 -59 30 -79 3 -87 -11 -4
-22 -5 -24 -3 -4 5 -312 780 -319 805 -6 18 -1 25 25 39 26 13 92 40 107 43 2
1 10 -6 18 -14z m91 -195 c31 -73 43 -113 39 -132 -4 -20 -1 -28 9 -28 7 0 17
-6 21 -12 8 -13 34 -171 29 -176 -2 -2 -17 32 -33 75 -25 66 -34 78 -55 81
l-25 3 48 -118 c27 -65 54 -117 60 -115 7 1 10 -8 8 -25 -2 -19 -9 -29 -23
-31 -16 -2 -25 10 -46 65 -14 38 -68 171 -118 297 -51 125 -91 229 -89 231 2
2 26 12 53 23 l50 20 14 -27 c8 -14 34 -73 58 -131z m-2524 -146 c4 -4 23 -8
44 -10 36 -4 72 -10 83 -14 3 -1 9 -2 14 -1 5 1 16 -1 25 -5 20 -9 29 -11 63
-12 15 -1 34 -9 42 -18 9 -8 16 -11 16 -5 0 11 40 8 85 -6 11 -3 90 -18 175
-34 183 -32 252 -48 265 -60 19 -18 -72 -6 -315 42 -58 11 -124 23 -148 25
-24 3 -67 12 -95 20 -29 8 -76 16 -106 19 -29 3 -62 10 -72 15 -10 6 -22 9
-26 8 -22 -6 -83 14 -83 27 0 15 21 20 33 9z m3973 -316 c-8 -84 -18 -193 -22
-243 l-7 -90 -17 65 c-19 68 -49 271 -53 354 l-2 48 55 17 c30 9 56 14 58 10
2 -5 -4 -77 -12 -161z m-385 -252 c43 -42 89 -112 89 -134 0 -26 17 -29 22 -4
4 19 -45 97 -70 111 -9 5 -14 12 -11 15 3 3 20 -5 37 -17 50 -37 134 -119 128
-124 -3 -3 -1 -14 4 -23 7 -13 5 -21 -5 -30 -8 -7 -15 -18 -15 -25 0 -22 -61
-66 -147 -106 l-83 -38 -1 -43 c-1 -25 -3 -33 -6 -18 -2 14 -8 34 -13 45 -5
11 -17 49 -26 84 -16 58 -96 199 -123 215 -24 15 -7 33 67 68 116 56 120 57
153 24z m-347 -27 c70 -26 131 -79 187 -162 35 -54 40 -66 37 -111 -2 -36 -7
-50 -16 -48 -8 1 -11 -2 -7 -8 3 -5 1 -18 -4 -27 -9 -16 -10 -16 -11 4 0 28
-17 38 -35 23 -20 -16 -19 -32 3 -56 23 -25 42 -109 42 -185 0 -51 8 -77 49
-167 27 -59 57 -131 67 -159 20 -56 24 -59 55 -42 24 12 62 2 52 -14 -3 -7 2
-5 13 4 24 21 42 14 56 -20 11 -25 12 -25 15 -3 3 12 9 22 16 22 6 0 21 9 33
21 14 13 24 17 29 10 3 -6 -2 -11 -12 -11 -17 -1 -17 -1 0 -11 24 -14 67 -3
67 17 0 13 4 12 24 -3 16 -12 20 -21 12 -26 -6 -5 12 -6 39 -2 28 3 65 1 82
-4 21 -6 35 -6 39 0 3 5 10 7 15 4 5 -4 9 1 9 11 0 13 3 14 15 4 12 -10 18
-10 32 1 11 10 14 10 9 2 -4 -8 -2 -13 4 -13 6 0 8 -5 5 -10 -8 -12 -3 -13 29
0 19 7 24 6 20 -4 -3 -7 2 -13 10 -13 8 0 13 4 10 8 -2 4 1 11 7 15 7 4 9 3 6
-2 -3 -6 -2 -16 4 -24 7 -12 9 -12 9 -1 0 10 3 11 13 2 8 -6 17 -8 20 -4 4 3
12 2 19 -4 7 -5 23 -8 36 -7 12 0 33 -9 47 -22 23 -21 29 -22 26 -1 0 4 6 7
14 7 8 0 15 -5 15 -11 0 -5 5 -7 10 -4 6 3 10 1 10 -4 0 -6 -16 -17 -35 -25
-19 -8 -35 -19 -35 -24 0 -4 -53 -3 -117 4 -65 6 -158 15 -207 18 -49 4 -92 9
-96 11 -3 2 -37 6 -75 10 -127 11 -218 27 -242 42 -13 8 -23 12 -23 9 0 -4
-14 1 -31 10 l-32 16 8 -39 c10 -50 11 -140 2 -178 -4 -16 -12 -70 -17 -119
-6 -49 -13 -93 -17 -98 -3 -6 -1 -13 4 -17 7 -4 7 -31 1 -76 -4 -38 -15 -124
-23 -190 -13 -109 -13 -60 0 80 4 41 3 45 -5 20 -17 -57 -41 -170 -55 -265
-21 -138 -46 -241 -56 -234 -5 3 -9 13 -9 22 0 9 -7 30 -16 47 -8 16 -16 47
-17 68 -1 26 -7 42 -19 48 -25 13 -23 39 3 39 11 0 18 4 14 9 -3 5 -1 12 5 16
16 10 12 35 -6 35 -8 0 -25 5 -36 11 -20 11 -20 11 3 23 16 8 23 20 22 34 -4
37 17 24 38 -23 11 -24 24 -47 30 -51 14 -8 31 16 24 34 -3 7 0 10 5 7 6 -4 8
12 4 41 -6 53 -39 89 -91 99 -34 6 -43 19 -19 28 16 6 27 55 15 63 -15 9 -10
54 6 60 13 5 12 10 -5 31 -23 30 -27 51 -5 33 16 -13 20 -3 9 24 -3 8 -12 12
-19 10 -7 -3 -16 -1 -20 5 -3 6 1 11 9 11 19 0 28 14 36 62 5 25 3 41 -5 48
-8 7 -10 24 -5 54 5 34 3 49 -9 60 -10 10 -14 31 -12 61 1 25 -2 45 -7 45 -16
0 -33 82 -20 97 11 14 5 17 -26 13 -13 -1 -17 3 -13 14 7 18 -10 134 -24 159
-8 15 -6 17 18 11 l28 -6 -32 31 c-33 31 -42 51 -23 51 18 0 11 61 -10 88 -15
19 -19 34 -14 55 7 33 -6 47 -43 47 -24 0 -31 14 -13 25 6 3 8 17 6 30 -3 15
1 25 10 27 9 2 10 8 5 17 -6 10 -13 10 -28 3 -14 -8 -23 -8 -32 1 -9 9 -14 9
-19 0 -4 -6 -20 -15 -35 -18 -15 -4 -32 -15 -37 -25 -11 -20 -9 -80 3 -73 13
8 7 -14 -8 -27 -11 -9 -28 -10 -62 -4 -57 11 -65 32 -34 88 12 20 21 38 21 41
0 2 -15 -1 -32 -6 -18 -5 -34 -9 -35 -9 -1 0 -8 7 -17 15 -17 17 -12 66 9 98
14 20 9 57 -7 57 -6 0 -7 -8 -4 -17 4 -10 4 -14 1 -11 -9 9 -83 -30 -95 -51
-7 -11 -9 1 -10 44 0 143 121 269 275 284 71 8 119 0 199 -30z m-1816 -337
c42 -42 102 -140 102 -165 0 -9 -4 -19 -10 -22 -5 -3 -7 0 -4 8 3 10 -7 17
-35 25 -23 5 -41 6 -41 1 0 -8 15 -12 23 -6 2 1 11 -4 20 -12 23 -19 12 -31
-22 -25 -18 4 -33 0 -44 -11 -12 -12 -22 -13 -34 -7 -11 7 -26 6 -42 0 -15 -5
-51 -11 -81 -14 -30 -2 -74 -6 -97 -9 -25 -4 -44 -2 -48 5 -4 6 -14 9 -22 6
-11 -4 -13 -2 -9 9 3 8 1 15 -4 15 -20 0 -9 -28 26 -64 21 -22 34 -43 30 -52
-4 -10 4 -18 22 -25 15 -6 37 -21 50 -35 17 -18 29 -23 49 -18 16 4 28 2 34
-7 7 -11 9 -10 9 5 0 41 20 -3 23 -51 0 -13 5 -23 10 -23 5 0 7 6 5 12 -5 14
16 39 35 42 24 4 62 19 67 26 9 12 91 40 101 35 5 -4 9 -2 9 4 0 5 -5 11 -12
13 -9 3 -6 13 8 31 16 19 24 23 33 14 8 -8 11 -8 11 3 0 9 5 8 15 -6 17 -22
20 -38 5 -29 -13 8 -13 2 1 -29 7 -14 15 -24 18 -22 3 2 7 -12 9 -31 2 -29 -1
-34 -14 -29 -17 6 -79 -19 -102 -41 -15 -14 -21 -16 -74 -15 -36 1 -49 -10
-28 -23 16 -10 12 -22 -8 -27 -14 -4 -19 -16 -20 -44 -2 -47 6 -76 19 -69 5 4
9 2 9 -2 0 -5 14 -14 30 -20 17 -6 30 -15 29 -20 -1 -4 -1 -10 1 -13 1 -3 3
-16 6 -29 2 -14 13 -31 24 -38 11 -8 20 -23 20 -33 0 -10 4 -20 10 -22 5 -1
11 -14 13 -28 2 -14 9 -25 15 -25 18 0 27 -16 13 -25 -20 -12 -6 -40 21 -41
19 -1 20 -2 4 -6 -17 -5 -18 -12 -13 -83 5 -77 2 -87 -28 -88 -5 0 -9 4 -8 9
4 14 -25 -1 -31 -17 -3 -8 -10 -14 -17 -14 -6 0 -8 7 -5 16 5 14 4 15 -8 5
-11 -9 -15 -9 -18 0 -3 8 -9 9 -18 4 -28 -18 -51 -11 -72 19 -12 17 -29 39
-39 48 -39 38 -69 86 -69 110 0 14 -9 33 -20 43 -11 10 -20 28 -20 39 0 12 -7
29 -15 39 -7 10 -11 29 -9 42 4 21 0 24 -23 24 -40 -1 -105 17 -114 33 -15 23
-11 48 8 41 11 -4 14 -3 9 5 -4 7 -14 12 -22 12 -8 0 -12 4 -9 10 3 5 -2 21
-11 35 -9 14 -13 25 -8 24 5 -1 16 -1 24 0 12 1 11 4 -4 16 -10 7 -16 19 -14
25 2 6 17 -3 35 -20 41 -41 88 -43 143 -6 22 14 41 32 41 39 1 6 3 22 4 34 2
18 -1 21 -16 13 -9 -6 -25 -7 -33 -4 -18 7 -22 34 -6 34 22 0 59 32 53 46 -9
23 -65 16 -136 -16 -37 -16 -69 -30 -72 -30 -3 0 -3 13 0 29 3 18 0 33 -10 41
-8 7 -12 16 -9 21 3 5 2 15 -3 22 -4 6 -8 18 -9 25 -3 20 -8 22 -23 13 -9 -6
-10 -14 -3 -27 16 -30 35 -130 28 -143 -15 -24 -33 -10 -34 25 -1 20 -9 46
-19 56 -14 16 -18 37 -18 98 0 66 4 83 22 107 12 15 39 52 58 81 44 64 91 96
193 133 110 40 143 38 190 -9z m2891 -227 c12 -77 28 -182 37 -233 9 -51 14
-95 12 -98 -3 -2 -52 1 -109 8 -78 9 -97 14 -74 19 17 4 22 7 13 8 -11 1 -18
9 -18 22 0 13 -4 18 -12 13 -7 -4 -8 -3 -4 5 9 14 26 5 26 -15 0 -17 9 -18 30
-3 13 9 13 10 0 6 -9 -2 -22 8 -32 25 -10 15 -23 27 -30 26 -7 -2 -12 3 -10
10 1 6 -2 12 -6 12 -4 0 -8 -17 -9 -37 0 -29 1 -33 7 -18 6 15 8 11 8 -17 -1
-44 1 -45 -133 36 -55 33 -101 61 -103 61 -1 1 9 28 23 59 17 39 29 55 38 49
19 -11 116 -79 169 -117 26 -19 44 -37 41 -40 -4 -3 -1 -7 5 -7 7 -1 16 -2 22
-3 10 -1 59 -37 91 -68 11 -10 19 -15 19 -10 0 4 5 0 10 -8 7 -11 10 -12 10
-2 0 8 -13 27 -29 43 -25 25 -27 29 -11 29 10 0 22 -4 25 -10 20 -32 17 11
-12 188 -36 216 -37 231 -24 217 5 -6 18 -73 30 -150z m-1103 -227 c1 -10 -1
-20 -6 -23 -4 -3 -6 -14 -3 -25 3 -11 -2 -31 -10 -44 -14 -21 -14 -26 -2 -36
22 -19 18 -29 -17 -43 -31 -12 -33 -12 -60 19 -28 32 -36 54 -19 54 6 0 24 27
42 60 25 47 37 60 52 58 11 -2 21 -11 23 -20z m-309 -80 c9 -10 20 -15 25 -12
5 3 12 -3 15 -15 3 -11 13 -23 22 -26 10 -3 18 -17 19 -37 2 -18 8 -36 15 -40
8 -5 4 -8 -10 -8 -12 0 -35 11 -51 25 -38 32 -63 33 -34 2 12 -13 22 -27 22
-32 0 -5 7 -17 17 -27 15 -17 15 -18 -2 -18 -10 0 -26 7 -35 15 -15 14 -19 14
-31 -1 -11 -14 -11 -18 6 -30 13 -10 15 -14 4 -14 -9 0 -15 -12 -16 -31 -2
-32 -9 -46 -18 -38 -4 4 0 43 19 184 2 17 5 64 7 105 1 41 4 62 6 45 3 -16 12
-38 20 -47z m1198 -582 c22 -3 33 -52 34 -163 1 -53 4 -63 19 -63 11 0 8 -5
-11 -15 -27 -14 -32 -12 -172 70 -79 47 -146 85 -149 85 -3 0 -6 -10 -9 -22
-2 -13 -2 4 0 37 7 95 -3 89 141 81 70 -4 136 -8 147 -10z m-1320 -178 c-9
-62 -19 -134 -22 -160 -3 -26 -9 -46 -12 -43 -4 2 -4 32 0 67 4 35 6 65 3 67
-2 2 -4 -2 -4 -10 0 -11 -2 -11 -10 1 -8 13 -10 12 -10 -2 0 -10 -8 -18 -17
-19 -11 0 -13 -3 -5 -6 20 -8 14 -23 -10 -24 -22 0 -22 -1 -3 -9 11 -5 15 -9
8 -9 -7 -1 -10 -8 -6 -17 5 -13 2 -15 -15 -10 -11 4 -23 2 -27 -4 -3 -6 -11
-8 -16 -5 -14 9 -11 -2 7 -19 14 -15 14 -16 -1 -16 -9 0 -14 -4 -11 -9 4 -5 2
-11 -4 -13 -6 -2 -12 -13 -14 -25 -4 -17 -1 -20 11 -16 11 4 14 2 9 -5 -4 -7
-14 -12 -22 -12 -8 0 -14 -6 -13 -12 1 -7 1 -22 0 -33 -1 -16 -3 -17 -10 -6
-7 11 -10 10 -14 -5 -6 -20 1 140 8 191 2 17 7 57 10 90 11 108 25 206 29 214
5 7 47 8 62 0 16 -9 85 -2 97 10 19 20 20 -27 2 -151z m-280 -140 c-15 -106
-29 -215 -31 -243 -3 -27 -14 -103 -25 -169 -10 -65 -19 -131 -19 -147 0 -16
-4 -29 -10 -29 -5 0 -7 6 -5 13 2 6 9 73 15 147 6 74 17 173 25 220 7 47 16
119 20 160 7 85 32 241 43 267 17 42 12 -34 -13 -219z m-1047 -108 c7 -12 17
-18 23 -14 7 4 10 -1 7 -12 -2 -12 -13 -20 -31 -22 -25 -3 -40 -22 -16 -22 16
0 39 -26 39 -44 0 -9 -8 -16 -20 -16 -11 0 -20 -4 -20 -10 0 -5 11 -10 24 -10
14 0 30 -10 40 -25 9 -13 22 -23 29 -21 6 1 9 1 5 -1 -4 -2 -4 -11 -1 -19 9
-23 -31 -17 -76 13 -23 15 -41 31 -41 36 0 5 -17 25 -38 46 -35 35 -45 71 -19
71 7 0 4 5 -6 11 -29 17 -11 27 34 19 39 -7 40 -7 35 16 -8 30 14 32 32 4z"/>
<path d="M3625 3995 c-77 -7 -232 -20 -345 -29 -113 -10 -210 -19 -215 -20
-10 -3 77 -941 87 -952 3 -2 67 3 144 11 76 7 249 24 384 36 135 12 247 23
250 26 2 2 -19 209 -48 461 -29 251 -52 463 -52 470 0 14 -14 14 -205 -3z
m173 -132 c52 -443 71 -617 69 -619 -1 -1 -85 -9 -187 -18 -102 -9 -249 -23
-327 -31 -78 -8 -151 -15 -160 -15 -17 0 -21 28 -47 293 -16 160 -32 323 -36
361 -4 45 -3 69 4 72 15 5 559 51 622 53 l51 1 11 -97z m0 -670 c-24 -6 -23
-39 2 -46 17 -4 20 0 20 24 0 51 27 35 35 -20 5 -34 12 -51 23 -54 12 -3 10
-5 -5 -6 -15 -1 -23 5 -24 17 0 16 -1 16 -8 -1 -4 -10 -11 -18 -16 -18 -6 0
-21 -3 -34 -6 -16 -4 -28 -1 -36 11 -15 20 -25 21 -25 1 0 -22 -31 -18 -37 5
-3 11 -10 20 -15 20 -6 0 -8 -9 -5 -20 3 -11 1 -23 -4 -26 -5 -3 -10 14 -11
38 l-1 43 -4 -42 c-4 -38 -7 -43 -29 -43 -23 0 -24 3 -24 55 0 48 3 55 19 55
11 0 22 -6 24 -12 3 -8 6 -5 6 5 1 13 7 17 23 15 18 -2 24 -12 30 -47 11 -62
18 -63 18 -3 0 29 4 52 9 52 5 0 17 -22 26 -49 13 -39 20 -48 34 -44 12 3 17
11 14 24 -3 10 -10 17 -15 16 -15 -3 -32 28 -25 47 4 9 16 15 29 15 17 -1 18
-2 6 -6z m-248 -22 c0 -5 -8 -11 -18 -13 -15 -4 -17 -13 -14 -42 2 -20 9 -39
15 -43 7 -4 8 5 4 26 -5 24 -3 31 6 29 6 -3 13 -19 15 -36 3 -26 0 -32 -17
-32 -11 0 -23 5 -27 11 -5 8 -9 8 -14 -1 -6 -9 -13 -4 -24 16 -16 29 -16 29
-10 3 5 -22 1 -27 -21 -33 -15 -4 -28 -6 -30 -4 -1 2 -10 17 -18 33 l-16 30 5
-31 c5 -27 2 -32 -17 -37 -15 -4 -26 -1 -32 8 -10 19 -27 19 -27 0 0 -22 -27
-18 -33 5 -8 29 -25 25 -19 -5 2 -14 0 -25 -6 -25 -6 0 -12 21 -14 47 -4 65
-24 66 -21 1 2 -39 0 -48 -6 -33 -5 11 -10 35 -10 53 -1 18 -6 32 -13 33 -25
1 28 18 59 18 34 1 39 -7 42 -63 2 -52 11 -41 11 13 0 61 16 65 37 10 l13 -34
-2 37 c-2 20 1 40 5 44 4 4 8 -8 8 -27 l2 -34 6 35 7 35 17 -30 17 -30 -6 28
c-5 20 -2 27 9 27 8 0 22 3 30 6 10 3 18 -4 25 -23 l10 -28 1 30 c1 20 4 26
10 17 6 -10 10 -10 21 3 13 16 40 21 40 6z"/>
<path d="M3678 3933 c-40 -3 -48 -8 -48 -24 0 -14 7 -19 28 -19 l29 0 34 -315
c34 -314 34 -315 57 -315 22 0 23 3 18 38 -5 30 -66 576 -66 588 0 2 8 4 18 4
25 0 31 7 25 31 -4 12 -13 18 -27 17 -11 -1 -42 -3 -68 -5z"/>
<path d="M3528 3923 c-47 -3 -58 -7 -58 -21 0 -14 45 -435 66 -611 l6 -54 65
6 c36 4 67 8 69 10 5 4 -64 645 -71 665 -2 6 -8 11 -12 10 -4 -1 -34 -3 -65
-5z m66 -295 c15 -139 30 -272 33 -294 5 -38 3 -42 -21 -46 -14 -3 -26 -2 -26
3 0 4 -13 133 -30 286 -16 152 -30 283 -30 290 0 7 10 13 23 13 23 0 24 -3 51
-252z"/>
<path d="M3331 3903 l-34 -4 6 -57 c33 -341 62 -604 67 -612 4 -6 33 -7 73 -3
55 5 67 9 63 22 -2 9 -19 161 -37 339 l-34 322 -35 -2 c-19 0 -50 -3 -69 -5z
m78 -170 c7 -71 20 -201 29 -291 10 -90 16 -165 13 -167 -2 -3 -12 -5 -22 -5
-23 0 -24 1 -49 255 -38 375 -37 335 -8 335 24 0 25 -2 37 -127z"/>
<path d="M3185 3891 c-59 -6 -60 -6 -57 -36 1 -16 16 -164 32 -329 17 -164 30
-304 30 -310 0 -9 18 -11 63 -8 34 2 65 7 69 11 4 3 0 69 -7 146 -8 77 -15
148 -15 157 0 9 -9 20 -21 23 -19 6 -20 8 -4 25 16 17 16 30 6 137 -15 152
-21 193 -29 191 -4 -1 -34 -4 -67 -7z"/>
<path d="M3600 1780 c0 -6 6 -13 14 -16 12 -5 20 -34 33 -119 1 -11 5 -98 8
-194 2 -98 9 -179 15 -185 14 -14 13 -27 -2 -24 -8 2 -13 -7 -12 -19 3 -99 4
-103 23 -103 11 0 27 -10 35 -22 20 -28 20 -13 1 42 -20 56 -19 60 6 30 20
-24 21 -24 16 -3 -3 13 -2 25 2 28 14 8 0 169 -17 188 -14 16 -14 17 0 12 20
-8 27 18 17 60 -4 17 -13 55 -19 85 -27 128 -60 217 -85 234 -28 19 -35 20
-35 6z"/>
<path d="M2618 5332 c-1 -4 -30 -21 -63 -38 -35 -18 -61 -38 -64 -49 -2 -13 1
-16 13 -12 9 4 16 2 16 -4 0 -6 15 -2 33 9 17 11 57 25 87 33 30 7 62 19 71
26 14 12 19 12 31 0 9 -10 21 -11 36 -6 24 9 29 25 10 32 -7 3 3 3 23 0 20 -3
45 0 55 6 14 8 -13 10 -113 11 -72 0 -133 -4 -135 -8z"/>
</g>
</svg>
